REM DIRINDEX 1\2,1\3,1\4,1\5,1\6,1\7,1\8
REM DIRNAME cjc150,folder01,folder02,folder03,folder04,folder05,folder06,folder07
TITLE ""
FILE "004 ‚Å‚é•¶54.mp3" MP3
  TRACK 01 AUDIO
    TITLE "8:cjc150_2549"
    INDEX 01 00:00:00
  TRACK 02 AUDIO
    TITLE "0:"
    INDEX 01 00:01:52
  TRACK 03 AUDIO
    TITLE "2:cjc150_2550"
    INDEX 01 00:02:51
  TRACK 04 AUDIO
    TITLE "0:"
    INDEX 01 00:09:36
  TRACK 05 AUDIO
    TITLE "8:cjc150_2551"
    INDEX 01 00:10:70
  TRACK 06 AUDIO
    TITLE "0:"
    INDEX 01 00:13:47
  TRACK 07 AUDIO
    TITLE "3:cjc150_2552"
    INDEX 01 00:14:39
  TRACK 08 AUDIO
    TITLE "3:cjc150_2553"
    INDEX 01 00:16:10
  TRACK 09 AUDIO
    TITLE "3:cjc150_2554"
    INDEX 01 00:17:63
  TRACK 10 AUDIO
    TITLE "3:cjc150_2555"
    INDEX 01 00:20:06
  TRACK 11 AUDIO
    TITLE "3:cjc150_2556"
    INDEX 01 00:22:25
  TRACK 12 AUDIO
    TITLE "3:cjc150_2557"
    INDEX 01 00:24:33
  TRACK 13 AUDIO
    TITLE "3:cjc150_2558"
    INDEX 01 00:26:46
  TRACK 14 AUDIO
    TITLE "3:cjc150_2559"
    INDEX 01 00:29:13
  TRACK 15 AUDIO
    TITLE "8:cjc150_2560"
    INDEX 01 00:31:59
  TRACK 16 AUDIO
    TITLE "0:"
    INDEX 01 00:34:36
  TRACK 17 AUDIO
    TITLE "4:cjc150_2561"
    INDEX 01 00:35:19
  TRACK 18 AUDIO
    TITLE "4:cjc150_2562"
    INDEX 01 00:38:24
  TRACK 19 AUDIO
    TITLE "4:cjc150_2563"
    INDEX 01 00:41:65
  TRACK 20 AUDIO
    TITLE "4:cjc150_2564"
    INDEX 01 00:43:74
  TRACK 21 AUDIO
    TITLE "4:cjc150_2565"
    INDEX 01 00:46:54
  TRACK 22 AUDIO
    TITLE "4:cjc150_2566"
    INDEX 01 00:49:18
  TRACK 23 AUDIO
    TITLE "8:cjc150_2567"
    INDEX 01 00:52:20
  TRACK 24 AUDIO
    TITLE "0:"
    INDEX 01 00:55:14
  TRACK 25 AUDIO
    TITLE "5:cjc150_2568"
    INDEX 01 00:55:73
  TRACK 26 AUDIO
    TITLE "5:cjc150_2569"
    INDEX 01 00:57:60
  TRACK 27 AUDIO
    TITLE "5:cjc150_2570"
    INDEX 01 01:00:23
  TRACK 28 AUDIO
    TITLE "5:cjc150_2571"
    INDEX 01 01:01:72
  TRACK 29 AUDIO
    TITLE "5:cjc150_2572"
    INDEX 01 01:03:41
  TRACK 30 AUDIO
    TITLE "5:cjc150_2573"
    INDEX 01 01:06:08
  TRACK 31 AUDIO
    TITLE "5:cjc150_2574"
    INDEX 01 01:09:20
  TRACK 32 AUDIO
    TITLE "5:cjc150_2575"
    INDEX 01 01:11:35
  TRACK 33 AUDIO
    TITLE "5:cjc150_2576"
    INDEX 01 01:13:55
  TRACK 34 AUDIO
    TITLE "5:cjc150_2577"
    INDEX 01 01:17:06
  TRACK 35 AUDIO
    TITLE "5:cjc150_2578"
    INDEX 01 01:20:06
  TRACK 36 AUDIO
    TITLE "5:cjc150_2579"
    INDEX 01 01:22:15
  TRACK 37 AUDIO
    TITLE "5:cjc150_2580"
    INDEX 01 01:24:20
  TRACK 38 AUDIO
    TITLE "5:cjc150_2581"
    INDEX 01 01:26:48
  TRACK 39 AUDIO
    TITLE "5:cjc150_2582"
    INDEX 01 01:30:09
  TRACK 40 AUDIO
    TITLE "5:cjc150_2583"
    INDEX 01 01:32:51
  TRACK 41 AUDIO
    TITLE "8:cjc150_2584"
    INDEX 01 01:35:24
  TRACK 42 AUDIO
    TITLE "0:"
    INDEX 01 01:38:04
  TRACK 43 AUDIO
    TITLE "6:cjc150_2585"
    INDEX 01 01:38:71
  TRACK 44 AUDIO
    TITLE "6:cjc150_2586"
    INDEX 01 01:42:06
  TRACK 45 AUDIO
    TITLE "6:cjc150_2587"
    INDEX 01 01:45:65
  TRACK 46 AUDIO
    TITLE "6:cjc150_2588"
    INDEX 01 01:48:65
  TRACK 47 AUDIO
    TITLE "6:cjc150_2589"
    INDEX 01 01:51:58
  TRACK 48 AUDIO
    TITLE "6:cjc150_2590"
    INDEX 01 01:55:18
  TRACK 49 AUDIO
    TITLE "6:cjc150_2591"
    INDEX 01 01:58:17
  TRACK 50 AUDIO
    TITLE "6:cjc150_2592"
    INDEX 01 02:00:27
  TRACK 51 AUDIO
    TITLE "6:cjc150_2593"
    INDEX 01 02:02:36
  TRACK 52 AUDIO
    TITLE "6:cjc150_2594"
    INDEX 01 02:04:62
  TRACK 53 AUDIO
    TITLE "6:cjc150_2595"
    INDEX 01 02:08:21
  TRACK 54 AUDIO
    TITLE "6:cjc150_2596"
    INDEX 01 02:10:61
  TRACK 55 AUDIO
    TITLE "8:cjc150_2597"
    INDEX 01 02:12:48
  TRACK 56 AUDIO
    TITLE "0:"
    INDEX 01 02:14:30
  TRACK 57 AUDIO
    TITLE "7:cjc150_2598"
    INDEX 01 02:15:13
  TRACK 58 AUDIO
    TITLE "7:cjc150_2599"
    INDEX 01 02:21:73
  TRACK 59 AUDIO
    TITLE "0:"
    INDEX 01 02:28:45
